<svg id="Group_147" data-name="Group 147" xmlns="http://www.w3.org/2000/svg" xmlns:xlink="http://www.w3.org/1999/xlink" width="332.996" height="41.323" viewBox="0 0 332.996 41.323">
  <defs>
    <clipPath id="clip-path">
      <rect id="Rectangle_101" data-name="Rectangle 101" width="332.996" height="41.323" fill="#FFFFFF"/>
    </clipPath>
  </defs>
  <g id="Group_145" data-name="Group 145" clip-path="url(#clip-path)">
    <path id="Path_52" data-name="Path 52" d="M210.206.581A20.451,20.451,0,0,1,214.485,1,9.242,9.242,0,0,1,217.8,2.352a6.316,6.316,0,0,1,2.139,2.507,8.81,8.81,0,0,1,.759,3.864,7.2,7.2,0,0,1-1.127,4.14,8.186,8.186,0,0,1-3.335,2.714,7.9,7.9,0,0,1,4.531,3.059,9.106,9.106,0,0,1,1.5,5.267,9.044,9.044,0,0,1-.966,4.3,8.384,8.384,0,0,1-2.6,2.967,11.5,11.5,0,0,1-3.726,1.7,16.793,16.793,0,0,1-4.3.552H194.749V.581Zm-.92,13.3a5.19,5.19,0,0,0,3.174-.92A3.476,3.476,0,0,0,213.7,9.966a3.819,3.819,0,0,0-.414-1.886,3.065,3.065,0,0,0-1.1-1.15,4.663,4.663,0,0,0-1.587-.575,10.558,10.558,0,0,0-1.863-.161h-6.763v7.683Zm.414,13.939a9.633,9.633,0,0,0,2.024-.207,4.972,4.972,0,0,0,1.7-.69,3.482,3.482,0,0,0,1.173-1.311,4.516,4.516,0,0,0,.437-2.116,4.249,4.249,0,0,0-1.426-3.611,6.09,6.09,0,0,0-3.773-1.081h-7.867v9.017Z" transform="translate(-144.864 -0.432)" fill="#FFFFFF"/>
    <path id="Path_53" data-name="Path 53" d="M319.184,59.746V56.434h-.138a7.352,7.352,0,0,1-3.22,2.99,9.513,9.513,0,0,1-4.048.92,11.425,11.425,0,0,1-4.3-.69A6.2,6.2,0,0,1,304.83,57.7a7.647,7.647,0,0,1-1.357-3.082,19.146,19.146,0,0,1-.391-4.025V35.962h6.533V49.4a8.329,8.329,0,0,0,.92,4.393,3.564,3.564,0,0,0,3.266,1.449,4.527,4.527,0,0,0,3.865-1.587q1.2-1.587,1.2-5.221V35.962h6.533V59.746Z" transform="translate(-225.447 -26.75)" fill="#FFFFFF"/>
    <path id="Path_54" data-name="Path 54" d="M396.6,66.832a9.476,9.476,0,0,1-5.245,1.242q-1.012,0-2-.069t-2-.161V62.462q.92.092,1.886.184a13.64,13.64,0,0,0,1.932.046,2.54,2.54,0,0,0,1.909-1.012,3.263,3.263,0,0,0,.621-1.932,3.924,3.924,0,0,0-.276-1.472L385.1,35.963h6.947l5.382,16.286h.092l5.2-16.286h6.763l-9.937,26.729a8.05,8.05,0,0,1-2.944,4.14" transform="translate(-286.459 -26.751)" fill="#FFFFFF"/>
    <path id="Path_55" data-name="Path 55" d="M478.029.581l12.283,32.847h-7.5l-2.484-7.315H468.046l-2.576,7.315H458.2L470.622.581Zm.414,20.15L474.3,8.678h-.092l-4.278,12.053Z" transform="translate(-340.832 -0.432)" fill="#FFFFFF"/>
    <path id="Path_56" data-name="Path 56" d="M578.695,51.965a3.815,3.815,0,0,0,1.127,1.242,4.831,4.831,0,0,0,1.587.713,7.443,7.443,0,0,0,1.863.23,6.971,6.971,0,0,0,1.449-.161,4.927,4.927,0,0,0,1.38-.506,3.136,3.136,0,0,0,1.035-.92,2.418,2.418,0,0,0,.414-1.449q0-1.472-1.955-2.208a39.143,39.143,0,0,0-5.452-1.472q-1.426-.322-2.783-.759a9.473,9.473,0,0,1-2.415-1.15,5.58,5.58,0,0,1-1.7-1.794,5.078,5.078,0,0,1-.644-2.645,7.157,7.157,0,0,1,.9-3.772,6.613,6.613,0,0,1,2.369-2.323,10.389,10.389,0,0,1,3.312-1.2,20.425,20.425,0,0,1,3.772-.345,18.864,18.864,0,0,1,3.75.368,9.943,9.943,0,0,1,3.243,1.242,7.457,7.457,0,0,1,2.369,2.323,7.815,7.815,0,0,1,1.127,3.657h-6.211a2.86,2.86,0,0,0-1.426-2.553,6.527,6.527,0,0,0-3.036-.667,11.239,11.239,0,0,0-1.2.069,3.984,3.984,0,0,0-1.173.3,2.423,2.423,0,0,0-.9.667,1.761,1.761,0,0,0-.368,1.173,1.79,1.79,0,0,0,.644,1.426,4.965,4.965,0,0,0,1.679.9,20.973,20.973,0,0,0,2.369.621q1.334.276,2.714.6a27.84,27.84,0,0,1,2.783.782,9.181,9.181,0,0,1,2.416,1.219,5.905,5.905,0,0,1,1.7,1.886,5.541,5.541,0,0,1,.644,2.783,7.223,7.223,0,0,1-3.4,6.487,10.086,10.086,0,0,1-3.473,1.357,20.284,20.284,0,0,1-3.98.391,19.7,19.7,0,0,1-4.048-.414,10.687,10.687,0,0,1-3.52-1.38,7.886,7.886,0,0,1-2.53-2.553,7.988,7.988,0,0,1-1.081-3.979h6.211a3.577,3.577,0,0,0,.437,1.817" transform="translate(-425.517 -24.88)" fill="#FFFFFF"/>
    <path id="Path_57" data-name="Path 57" d="M660.356,51.965a3.816,3.816,0,0,0,1.127,1.242,4.831,4.831,0,0,0,1.587.713,7.443,7.443,0,0,0,1.863.23,6.971,6.971,0,0,0,1.449-.161,4.926,4.926,0,0,0,1.38-.506,3.135,3.135,0,0,0,1.035-.92,2.418,2.418,0,0,0,.414-1.449q0-1.472-1.955-2.208a39.143,39.143,0,0,0-5.452-1.472q-1.426-.322-2.783-.759a9.474,9.474,0,0,1-2.415-1.15,5.58,5.58,0,0,1-1.7-1.794,5.078,5.078,0,0,1-.644-2.645,7.156,7.156,0,0,1,.9-3.772,6.613,6.613,0,0,1,2.369-2.323,10.389,10.389,0,0,1,3.312-1.2,20.425,20.425,0,0,1,3.772-.345,18.864,18.864,0,0,1,3.75.368,9.944,9.944,0,0,1,3.243,1.242,7.457,7.457,0,0,1,2.369,2.323,7.815,7.815,0,0,1,1.127,3.657H668.89a2.86,2.86,0,0,0-1.426-2.553,6.527,6.527,0,0,0-3.036-.667,11.24,11.24,0,0,0-1.2.069,3.984,3.984,0,0,0-1.173.3,2.422,2.422,0,0,0-.9.667,1.761,1.761,0,0,0-.368,1.173,1.79,1.79,0,0,0,.644,1.426,4.965,4.965,0,0,0,1.679.9,20.973,20.973,0,0,0,2.369.621q1.334.276,2.714.6a27.84,27.84,0,0,1,2.783.782A9.18,9.18,0,0,1,673.4,45.57a5.9,5.9,0,0,1,1.7,1.886,5.541,5.541,0,0,1,.644,2.783,7.223,7.223,0,0,1-3.4,6.487,10.085,10.085,0,0,1-3.473,1.357,20.284,20.284,0,0,1-3.98.391,19.7,19.7,0,0,1-4.048-.414,10.688,10.688,0,0,1-3.52-1.38,7.886,7.886,0,0,1-2.53-2.553,7.988,7.988,0,0,1-1.081-3.979h6.211a3.577,3.577,0,0,0,.437,1.817" transform="translate(-486.26 -24.88)" fill="#FFFFFF"/>
    <path id="Path_58" data-name="Path 58" d="M736.5,40.832a10.876,10.876,0,0,1,6.348-6.486,13.581,13.581,0,0,1,5.06-.9,13.765,13.765,0,0,1,5.084.9,10.83,10.83,0,0,1,6.372,6.486,14.618,14.618,0,0,1,.874,5.176,14.42,14.42,0,0,1-.874,5.152,11.175,11.175,0,0,1-2.484,3.933,10.819,10.819,0,0,1-3.888,2.507,14.094,14.094,0,0,1-5.084.874,13.906,13.906,0,0,1-5.06-.874,10.854,10.854,0,0,1-3.864-2.507,11.15,11.15,0,0,1-2.484-3.933,14.4,14.4,0,0,1-.874-5.152,14.6,14.6,0,0,1,.874-5.176m5.935,7.959a7.4,7.4,0,0,0,.943,2.438,5.014,5.014,0,0,0,1.771,1.725,5.4,5.4,0,0,0,2.76.644,5.532,5.532,0,0,0,2.783-.644,4.962,4.962,0,0,0,1.794-1.725,7.416,7.416,0,0,0,.943-2.438,13.932,13.932,0,0,0,.276-2.783,14.291,14.291,0,0,0-.276-2.806,7.171,7.171,0,0,0-.943-2.438,5.234,5.234,0,0,0-1.794-1.725,5.385,5.385,0,0,0-2.783-.667,5.025,5.025,0,0,0-4.531,2.392,7.161,7.161,0,0,0-.943,2.438,14.291,14.291,0,0,0-.276,2.806,13.932,13.932,0,0,0,.276,2.783" transform="translate(-547.192 -24.881)" fill="#FFFFFF"/>
    <path id="Path_59" data-name="Path 59" d="M840.789,38.37a4.588,4.588,0,0,0-2.622.713,5.665,5.665,0,0,0-1.725,1.84,7.955,7.955,0,0,0-.943,2.484,13.487,13.487,0,0,0-.276,2.691,12.927,12.927,0,0,0,.276,2.622,8.1,8.1,0,0,0,.9,2.415,5.144,5.144,0,0,0,1.679,1.771,4.615,4.615,0,0,0,2.576.69,4.788,4.788,0,0,0,3.612-1.311,6.2,6.2,0,0,0,1.587-3.52h6.3a10.779,10.779,0,0,1-3.68,7.223,11.879,11.879,0,0,1-7.775,2.484,13.013,13.013,0,0,1-4.9-.9A10.852,10.852,0,0,1,832,55.07a11.4,11.4,0,0,1-2.438-3.841,13.308,13.308,0,0,1-.874-4.9,15.844,15.844,0,0,1,.8-5.13,11.537,11.537,0,0,1,2.369-4.094,10.842,10.842,0,0,1,3.818-2.691,12.975,12.975,0,0,1,5.153-.966,14.914,14.914,0,0,1,4.071.552,10.883,10.883,0,0,1,3.5,1.679,8.683,8.683,0,0,1,3.611,6.786h-6.395q-.644-4.094-4.83-4.094" transform="translate(-616.42 -24.88)" fill="#FFFFFF"/>
    <path id="Path_60" data-name="Path 60" d="M920.282.582h6.533V5.964h-6.533Zm6.533,32.847h-6.533V9.645h6.533Z" transform="translate(-684.551 -0.433)" fill="#FFFFFF"/>
    <path id="Path_61" data-name="Path 61" d="M947.545,41.408a7.585,7.585,0,0,1,1.15-3.818,7.83,7.83,0,0,1,2.576-2.438,11.231,11.231,0,0,1,3.519-1.311,20.04,20.04,0,0,1,3.933-.391,26.771,26.771,0,0,1,3.635.253,11.145,11.145,0,0,1,3.358.989,6.617,6.617,0,0,1,2.484,2.047,5.72,5.72,0,0,1,.966,3.473V52.587a24.8,24.8,0,0,0,.184,3.082A5.552,5.552,0,0,0,970,57.877h-6.625a9.244,9.244,0,0,1-.3-1.127,9.621,9.621,0,0,1-.161-1.173,8.511,8.511,0,0,1-3.68,2.254,14.786,14.786,0,0,1-4.325.644,11.676,11.676,0,0,1-3.174-.414,7.257,7.257,0,0,1-2.576-1.288,5.986,5.986,0,0,1-1.725-2.208,7.463,7.463,0,0,1-.621-3.174,6.929,6.929,0,0,1,.713-3.335,5.954,5.954,0,0,1,1.84-2.093,8.246,8.246,0,0,1,2.576-1.173,27.747,27.747,0,0,1,2.921-.621q1.472-.23,2.9-.368a17.448,17.448,0,0,0,2.53-.414,4.412,4.412,0,0,0,1.748-.805,1.768,1.768,0,0,0,.6-1.541,3.466,3.466,0,0,0-.345-1.679,2.541,2.541,0,0,0-.92-.966,3.633,3.633,0,0,0-1.334-.46,11,11,0,0,0-1.633-.115,4.959,4.959,0,0,0-3.036.828,3.694,3.694,0,0,0-1.288,2.76Zm15.089,4.83a2.922,2.922,0,0,1-1.035.575,10.571,10.571,0,0,1-1.334.345q-.714.138-1.5.23t-1.564.23a11.8,11.8,0,0,0-1.449.368,4.29,4.29,0,0,0-1.242.621,2.945,2.945,0,0,0-.851.989,3.177,3.177,0,0,0-.322,1.518,3.066,3.066,0,0,0,.322,1.472,2.462,2.462,0,0,0,.874.943,3.684,3.684,0,0,0,1.288.483,8.2,8.2,0,0,0,1.518.138,5.773,5.773,0,0,0,2.991-.644,4.315,4.315,0,0,0,1.564-1.541,4.937,4.937,0,0,0,.621-1.817,12.55,12.55,0,0,0,.115-1.472Z" transform="translate(-704.283 -24.881)" fill="#FFFFFF"/>
    <path id="Path_62" data-name="Path 62" d="M1045.125,15.256v4.37h-4.784V31.4a3.2,3.2,0,0,0,.552,2.208,3.2,3.2,0,0,0,2.208.552q.552,0,1.058-.046a8.947,8.947,0,0,0,.966-.138V39.04a15.625,15.625,0,0,1-1.84.184q-1.012.045-1.978.046a19.093,19.093,0,0,1-2.875-.207,6.78,6.78,0,0,1-2.392-.805,4.255,4.255,0,0,1-1.633-1.7,6.074,6.074,0,0,1-.6-2.9V19.626h-3.957v-4.37h3.957V8.125h6.533v7.131Z" transform="translate(-766.055 -6.044)" fill="#FFFFFF"/>
    <path id="Path_63" data-name="Path 63" d="M1088.832.582h6.533V5.964h-6.533Zm6.533,32.847h-6.533V9.645h6.533Z" transform="translate(-809.927 -0.433)" fill="#FFFFFF"/>
    <path id="Path_64" data-name="Path 64" d="M1116.718,40.832a10.876,10.876,0,0,1,6.348-6.486,13.581,13.581,0,0,1,5.061-.9,13.765,13.765,0,0,1,5.083.9,10.83,10.83,0,0,1,6.372,6.486,14.616,14.616,0,0,1,.874,5.176,14.418,14.418,0,0,1-.874,5.152,11.175,11.175,0,0,1-2.484,3.933,10.819,10.819,0,0,1-3.888,2.507,14.094,14.094,0,0,1-5.083.874,13.906,13.906,0,0,1-5.061-.874,10.853,10.853,0,0,1-3.864-2.507,11.148,11.148,0,0,1-2.484-3.933,14.4,14.4,0,0,1-.874-5.152,14.6,14.6,0,0,1,.874-5.176m5.934,7.959a7.406,7.406,0,0,0,.943,2.438,5.015,5.015,0,0,0,1.771,1.725,5.4,5.4,0,0,0,2.76.644,5.532,5.532,0,0,0,2.783-.644,4.964,4.964,0,0,0,1.794-1.725,7.414,7.414,0,0,0,.943-2.438,13.928,13.928,0,0,0,.276-2.783,14.287,14.287,0,0,0-.276-2.806,7.17,7.17,0,0,0-.943-2.438,5.236,5.236,0,0,0-1.794-1.725,5.386,5.386,0,0,0-2.783-.667,5.025,5.025,0,0,0-4.531,2.392,7.162,7.162,0,0,0-.943,2.438,14.287,14.287,0,0,0-.276,2.806,13.928,13.928,0,0,0,.276,2.783" transform="translate(-830.02 -24.881)" fill="#FFFFFF"/>
    <path id="Path_65" data-name="Path 65" d="M1219.107,34.093v3.312h.138a7.5,7.5,0,0,1,3.22-3.013,9.32,9.32,0,0,1,4.048-.943,11.1,11.1,0,0,1,4.3.713,6.384,6.384,0,0,1,2.645,1.978,7.657,7.657,0,0,1,1.357,3.082,19.188,19.188,0,0,1,.391,4.025v14.63h-6.532V44.444a8.339,8.339,0,0,0-.92-4.394,3.564,3.564,0,0,0-3.266-1.449,4.526,4.526,0,0,0-3.865,1.587q-1.2,1.587-1.2,5.221V57.877H1212.9V34.093Z" transform="translate(-902.212 -24.881)" fill="#FFFFFF"/>
    <path id="Path_66" data-name="Path 66" d="M127.222,74.317v6.931h-9.685V74.056a11.686,11.686,0,0,0-3.35-8.217q-.384-.392-.8-.743a9.992,9.992,0,0,1,13.832,9.221" transform="translate(-84.345 -47.852)" fill="#e71d70"/>
    <path id="Path_67" data-name="Path 67" d="M122.205,8.2a7.182,7.182,0,0,1-11.55,5.7c-.079-.061-.159-.126-.236-.195a8.878,8.878,0,0,0,2.1-5.766,8.994,8.994,0,0,0-.279-2.223,8.891,8.891,0,0,0-1.57-3.23A7.177,7.177,0,0,1,122.205,8.2" transform="translate(-82.136 -0.759)" fill="#e71d70"/>
    <path id="Path_68" data-name="Path 68" d="M81.917,73.3v6.931H72.235V73.3a11.722,11.722,0,0,0-3.353-8.217,12.034,12.034,0,0,0-1-.914,10,10,0,0,1,8.566.223c.246.126.487.261.722.4s.453.295.671.453A10,10,0,0,1,81.917,73.3" transform="translate(-50.492 -47.093)" fill="#00b2e0"/>
    <path id="Path_69" data-name="Path 69" d="M77.87,7.182a7.14,7.14,0,0,1-1.555,4.457,6.478,6.478,0,0,1-.515.581,5.828,5.828,0,0,1-.558.51c-.061.054-.123.1-.184.151a7.186,7.186,0,0,1-8.737,0c-.036-.028-.072-.056-.108-.087a8.883,8.883,0,0,0,1.975-5.612A8.942,8.942,0,0,0,66.21,1.568a7.18,7.18,0,0,1,9.285.279,6.568,6.568,0,0,1,.533.535,6.039,6.039,0,0,1,.484.6,7.125,7.125,0,0,1,1.358,4.2" transform="translate(-49.25)" fill="#00b2e0"/>
    <path id="Path_70" data-name="Path 70" d="M19.975,73.3v6.931H0V73.3a9.99,9.99,0,0,1,14.034-9.132c.3.133.589.279.871.441s.548.325.807.507a10.072,10.072,0,0,1,1.414,1.2A9.951,9.951,0,0,1,19.975,73.3" transform="translate(0 -47.093)" fill="#f4e300"/>
    <path id="Path_71" data-name="Path 71" d="M25.322,7.182a7.137,7.137,0,0,1-1.457,4.332,6.221,6.221,0,0,1-.592.684,6.021,6.021,0,0,1-.656.594c-.036.033-.074.061-.11.09A7.181,7.181,0,1,1,22.62,1.568a6.833,6.833,0,0,1,.653.594,6.605,6.605,0,0,1,.592.689,7.154,7.154,0,0,1,1.457,4.332" transform="translate(-8.153)" fill="#f4e300"/>
  </g>
</svg>
