<svg xmlns="http://www.w3.org/2000/svg" data-name="6f839bb7-3c3d-4dc4-a543-79c36e30bbe3" viewBox="0 0 840.88 50.26" fill="#FFFFFF">
  <path d="M368.3 20.1v10.06h-41.6V20.1h41.6"></path>
  <path d="M352.52 4.31v41.61h-10.06V4.31h10.06M22.8 0c7.25 0 13.27 2.51 17.39 7.25 3.8 4.35 5.86 10.53 5.86 17.39 0 15-9.13 24.63-23.25 24.63H-.01V0h22.8M11.22 38.51h10.64c8 0 12.9-5.31 12.9-13.87s-5-13.81-12.9-13.81H11.22v27.68M126.28 0v27.85c0 13.61-8.87 22.41-22.59 22.41-7 0-12.84-2.24-16.81-6.44-3.74-4-5.72-9.51-5.72-16V0h11.21v27.07c0 8 4 12.43 11.32 12.43s11.45-4.42 11.45-12.43V0h11.15m80 0L187.6 20.39l-.52.57.45.63 20.21 27.68h-14l-13.75-18.9-.7-.95-.79.88-3.51 3.86-.25.28v14.89h-11.2V0h11.21v19.19l1.66-1.86L191.99 0h14.32m73.18 0v10.83h-26.13v9.25h21.51v10h-21.51v8.46h26.15v10.79h-37.38V0h37.38M438.4.5c7.25 0 13.27 2.5 17.39 7.25 3.78 4.35 5.86 10.52 5.86 17.38 0 15-9.11 24.63-23.25 24.63h-22.79V.5h22.79M426.82 39h10.6c7.95 0 12.89-5.31 12.89-13.87s-4.94-13.84-12.89-13.84h-10.6V39M534.86.5v10.79h-26.15v9.26h21.52v10h-21.52V39h26.15v10.73h-37.39V.5h37.39m80 0l-16.18 24-.37.54.37.53 16.56 24.23h-13.58l-9.23-13.62-.78-1.18-.79 1.19-9.13 13.62h-13.68l16.56-24.2.38-.61-.36-.53L568.43.52h13.19l9.23 13.55.79 1.19.78-1.19 9.3-13.55h13.18m75 0v10.77h-16v38.44h-11.19V11.29h-15.94V.48h43.14m72.17 0v10.81h-26.15v9.26h21.53v10h-21.55V39h26.15v10.73H724.7V.5h37.38m60.52 0c5.86 0 10.7 1.81 13.8 5.23a18 18 0 0 1 4.47 12.52c0 7.46-3.48 13.35-9.51 16.12l-1 .47.68.95 9.88 14h-13.36l-9.43-13.3-.29-.41h-8.13v13.68h-11.15V.5h24m-12.85 25.58h12.14c4 0 8.18-2 8.18-7.7 0-5-3-7.85-8.18-7.85h-12.14v15.55"></path>
</svg>
