<svg xmlns="http://www.w3.org/2000/svg" viewBox="0 0 42 10"><defs><style>.cls-1{fill:#fff;}</style></defs><g id="Layer_2" data-name="Layer 2"><g id="Layer_1-2" data-name="Layer 1"><path class="cls-1" d="M33.7,5.36c0,.12,0,.7.33.79A2,2,0,0,0,34.8,6l.12.8a1.59,1.59,0,0,1-.68.17c-.86,0-1.36-.58-1.36-1.6V3.92h-.56V3.49L33,3.11,33.17,2h.53V3.11h1.14v.81H33.7Z"/><path class="cls-1" d="M16.94,5V6.92h-.81V3.15h.81V4A1.64,1.64,0,0,1,18.37,3c.79,0,1.27.58,1.27,1.54V6.92h-.82V4.75c0-.65-.26-1-.75-1A1.2,1.2,0,0,0,16.94,5Z"/><path class="cls-1" d="M29.18,5V6.92h-.82V3.15h.82V4A1.61,1.61,0,0,1,30.6,3c.79,0,1.27.58,1.27,1.54V6.92h-.82V4.75c0-.65-.26-1-.75-1A1.19,1.19,0,0,0,29.18,5Z"/><path class="cls-1" d="M13.75,3a1.77,1.77,0,0,1,1.71,2c0,.12,0,.22,0,.33H12.9a1.12,1.12,0,0,0,1.18,1,2.35,2.35,0,0,0,1.2-.4l.16.65A2.42,2.42,0,0,1,14,7a1.86,1.86,0,0,1-2-2A1.8,1.8,0,0,1,13.75,3Zm.85,1.78c0-.59-.29-1.06-.84-1.06s-.86.39-.9,1.06Z"/><path class="cls-1" d="M23.4,3.45l-.18.66a1.73,1.73,0,0,0-1-.39A1.16,1.16,0,0,0,21.05,5,1.16,1.16,0,0,0,22.2,6.28a1.73,1.73,0,0,0,1-.39l.18.66A2,2,0,0,1,22.12,7,1.88,1.88,0,0,1,20.2,5a1.88,1.88,0,0,1,1.92-2A2,2,0,0,1,23.4,3.45Z"/><path class="cls-1" d="M27.27,6.2A.94.94,0,0,0,27.75,6v.75a1.06,1.06,0,0,1-.81.22.69.69,0,0,1-.65-.59V5.72A1.73,1.73,0,0,1,24.84,7a.91.91,0,0,1-.95-1c0-.73.58-1.1,1.15-1.36a9.53,9.53,0,0,1,1.17-.4.82.82,0,0,0-.85-.54,1.92,1.92,0,0,0-1.2.42L24,3.42A2.31,2.31,0,0,1,25.38,3a1.63,1.63,0,0,1,1.73,1.85V6.14A.23.23,0,0,0,27.27,6.2Zm-1-1.41v0a8.75,8.75,0,0,0-.94.32.93.93,0,0,0-.66.77.47.47,0,0,0,.49.49c.55,0,1.1-.65,1.11-1.52Z"/><path class="cls-1" d="M38.73,6.2A.94.94,0,0,0,39.2,6v.75a1,1,0,0,1-.8.22.7.7,0,0,1-.66-.59V5.72A1.73,1.73,0,0,1,36.3,7a.9.9,0,0,1-.95-1c0-.73.58-1.1,1.14-1.36a10.83,10.83,0,0,1,1.17-.4.82.82,0,0,0-.85-.54,1.92,1.92,0,0,0-1.2.42l-.17-.75A2.25,2.25,0,0,1,36.83,3a1.63,1.63,0,0,1,1.73,1.85V6.14A.24.24,0,0,0,38.73,6.2Zm-1-1.41v0a8.86,8.86,0,0,0-1,.32c-.31.13-.66.4-.66.77a.48.48,0,0,0,.5.49c.55,0,1.09-.65,1.11-1.52Z"/><path class="cls-1" d="M42,3.88a.6.6,0,0,0-.41-.06c-.56,0-1,.65-1,1.5v1.6h-.81V3.15h.81V3.9A1.24,1.24,0,0,1,41.68,3,.79.79,0,0,1,42,3.1Z"/><path class="cls-1" d="M6,3.07A1.54,1.54,0,1,1,7.55,1.53,1.54,1.54,0,0,1,6,3.07ZM6,.6A.93.93,0,1,0,7,1.53.93.93,0,0,0,6,.6Z"/><path class="cls-1" d="M2,3.07A1.54,1.54,0,1,1,3.52,1.53,1.54,1.54,0,0,1,2,3.07ZM2,.6A.93.93,0,0,0,2,2.46.93.93,0,1,0,2,.6Z"/><path class="cls-1" d="M4,10a.29.29,0,0,1-.21-.09L.51,6.51A1.81,1.81,0,0,1,0,5.24,1.83,1.83,0,0,1,.51,4a1.69,1.69,0,0,1,1.23-.52A1.66,1.66,0,0,1,3,4l.21.22h0a.31.31,0,0,1,0,.44.3.3,0,0,1-.43,0h0a.41.41,0,0,0-.29-.13.43.43,0,0,0-.3.13.47.47,0,0,0-.12.3.48.48,0,0,0,.12.31L4,7.1A.06.06,0,0,0,4,7.1L5.85,5.23a1,1,0,0,1,1.44,0,1.1,1.1,0,0,1,0,1.49L4.21,9.91A.29.29,0,0,1,4,10ZM1.74,4.06a1.1,1.1,0,0,0-.8.35,1.16,1.16,0,0,0-.34.83,1.19,1.19,0,0,0,.34.83L4,9.24l2.86-3A.42.42,0,0,0,7,6a.43.43,0,0,0-.12-.31.41.41,0,0,0-.59,0L4.47,7.54a.65.65,0,0,1-.94,0L1.73,5.67a1.08,1.08,0,0,1,0-1.49.63.63,0,0,1,.12-.11Z"/><path class="cls-1" d="M4,7.74a.67.67,0,0,1-.47-.2L1.73,5.67a1.08,1.08,0,0,1,0-1.49,1,1,0,0,1,1.44,0L4,5,5,4A1.7,1.7,0,0,1,7.49,4,1.83,1.83,0,0,1,8,5.24a1.81,1.81,0,0,1-.51,1.27l-.2.21h0a.3.3,0,0,1-.43,0,.31.31,0,0,1,0-.44h0A.42.42,0,0,0,7,6a.43.43,0,0,0-.12-.31.41.41,0,0,0-.59,0L4.47,7.54A.67.67,0,0,1,4,7.74ZM2.45,4.49a.43.43,0,0,0-.3.13.47.47,0,0,0-.12.3.48.48,0,0,0,.12.31L4,7.1A.06.06,0,0,0,4,7.1L5.85,5.23a1,1,0,0,1,1.44,0l.1.12s0-.07,0-.11a1.16,1.16,0,0,0-.34-.83,1.08,1.08,0,0,0-1.59,0L4.21,5.71a.29.29,0,0,1-.42,0l-1-1.09A.41.41,0,0,0,2.45,4.49Z"/><path class="cls-1" d="M4,7.74a.67.67,0,0,1-.47-.2L2,6a.33.33,0,0,1,0-.44H2a.29.29,0,0,1,.43,0L4,7.1A.06.06,0,0,0,4,7.1L5.85,5.23a1,1,0,0,1,1.44,0,1.09,1.09,0,0,1,0,1.5h0a.27.27,0,0,1-.4,0l0,0a.31.31,0,0,1,0-.42h0A.46.46,0,0,0,7,6a.45.45,0,0,0-.12-.33.41.41,0,0,0-.59,0L4.47,7.54A.67.67,0,0,1,4,7.74Z"/></g></g></svg>