<svg width="256" height="43" viewBox="0 0 256 43" fill="none" xmlns="http://www.w3.org/2000/svg">
<path d="M10.79 11.14H0V4.65002H29V11.14H18.29V41.08H10.79V11.14Z" fill="white"/>
<path d="M30.5601 4.65002H37.7101V17.17C38.6582 15.9672 39.8769 15.0051 41.2671 14.3622C42.6572 13.7193 44.1795 13.4136 45.7101 13.47C47.1007 13.3993 48.4893 13.6451 49.7712 14.189C51.053 14.733 52.1946 15.5607 53.1101 16.61C54.5301 18.43 54.5801 20.51 54.5801 23.14V41.08H47.4301V27C47.4301 22 47.3301 19.46 43.2301 19.46C39.8901 19.46 37.7101 21.58 37.7101 25.13V41.13H30.5601V4.65002Z" fill="white"/>
<path d="M81.3 32.92C79.83 38.55 75.22 42 68.84 42C61.19 42 56.17 36.53 56.17 27.46C56.17 18.64 60.99 13.22 68.74 13.22C76.95 13.22 81.66 18.39 81.66 27.66V29.54H63.66C63.86 33.74 65.74 35.92 69.23 35.92C71.67 35.92 73.23 35.01 74.15 32.92H81.3ZM74.21 24.82C74.11 21.17 72.21 19.24 68.89 19.24C65.8 19.24 63.89 21.17 63.62 24.82H74.21Z" fill="white"/>
<path d="M106.11 42.14C96 42.14 89 34.54 89 22.89C89 11.24 95.87 3.73999 106.31 3.73999C115.53 3.73999 121.56 8.44999 122.62 16.05H115C114.09 12.25 111.2 10.22 106.59 10.22C100.59 10.22 96.82 14.83 96.82 22.84C96.82 30.85 100.74 35.5 107 35.5C111.71 35.5 115.16 32.56 115.92 27.65H107.66V21.42H122.76V41.13H117.76L116.85 36.82C115.666 38.5532 114.057 39.9528 112.176 40.8845C110.295 41.8161 108.206 42.2485 106.11 42.14Z" fill="white"/>
<path d="M132.47 42.09C127.3 42.09 124.32 39.09 124.32 33.53C124.32 28.26 127.15 25.93 133.43 24.96C139.01 24.1 140.93 24.51 140.93 21.96C140.93 19.73 139.61 18.96 136.52 18.96C133.59 18.96 132.02 20.17 132.02 22.3V22.7H125.28V22.2C125.28 16.73 129.33 13.33 136.28 13.33C143.88 13.33 147.93 16.07 147.93 20.93V36.23C147.93 38.23 148.24 39.37 149.45 39.98V41.2H142C141.483 40.1575 141.203 39.0135 141.18 37.85C139.36 40.57 136.37 42.09 132.47 42.09ZM134.6 29.73C132.32 30.39 131.21 31.25 131.21 33.32C131.21 35.39 132.57 36.57 134.75 36.57C138.65 36.57 141.03 34.24 141.03 30.44V27.9C138.957 28.7338 136.802 29.3471 134.6 29.73Z" fill="white"/>
<path d="M151.05 14.22H157.74V18.83C159.61 15.14 162.04 13.46 165.49 13.46C165.844 13.45 166.199 13.4701 166.55 13.52V20.81H164.17C160.27 20.81 158.24 22.81 158.24 26.89V41.13H151.05V14.22Z" fill="white"/>
<path d="M193.12 41.13H186.28V37.4799C184.2 40.62 181.72 42.04 178.22 42.04C171.69 42.04 167.08 36.4099 167.08 27.7999C167.08 18.9399 171.84 13.31 178.08 13.31C179.67 13.255 181.247 13.6199 182.651 14.3677C184.055 15.1155 185.238 16.22 186.08 17.57V4.69995H193.08L193.12 41.13ZM180.25 35.86C184.05 35.86 186.13 33.02 186.13 27.5C186.13 22.38 183.9 19.5 180.13 19.5C176.58 19.5 174.3 22.44 174.3 27.5C174.27 33 176.4 35.86 180.25 35.86Z" fill="white"/>
<path d="M219.74 33C218.27 38.62 213.66 42.07 207.27 42.07C199.62 42.07 194.61 36.6 194.61 27.53C194.61 18.71 199.42 13.29 207.17 13.29C215.38 13.29 220.09 18.46 220.09 27.73C220.09 28.34 220.09 28.95 220.04 29.61H202.04C202.25 33.81 204.12 35.99 207.62 35.99C210.05 35.99 211.62 35.08 212.53 32.99L219.74 33ZM212.64 24.89C212.54 21.25 210.64 19.32 207.32 19.32C204.23 19.32 202.32 21.25 202.05 24.89H212.64Z" fill="white"/>
<path d="M221.69 14.22H228.74V17.42C229.688 16.1662 230.923 15.1578 232.341 14.4793C233.759 13.8008 235.319 13.4718 236.89 13.52C242.82 13.52 245.76 16.61 245.76 22.79V41.13H238.56V24.86C238.56 21.22 237.5 19.49 234.41 19.49C231.07 19.49 228.89 21.62 228.89 25.17V41.17H221.69V14.22Z" fill="white"/>
<path d="M245.26 7.78998C246.549 7.56196 247.791 7.11555 248.93 6.46998C247.758 5.84585 246.507 5.38491 245.21 5.09998C244.21 4.83998 243.7 4.39998 243.7 3.76998C243.692 3.62767 243.715 3.48534 243.767 3.35254C243.818 3.21974 243.898 3.09954 244 2.99998C244.202 2.80673 244.471 2.6992 244.75 2.69998C245.18 2.69998 245.75 3.08998 246.39 3.86998C247.179 4.72678 248.105 5.44657 249.13 5.99998V5.59998C249.134 4.71689 248.996 3.83892 248.72 2.99998C248.508 2.42024 248.373 1.81499 248.32 1.19998C248.308 1.03364 248.331 0.866678 248.388 0.70991C248.445 0.553143 248.534 0.410074 248.65 0.28998C248.754 0.186768 248.877 0.105301 249.013 0.050353C249.148 -0.004595 249.294 -0.0319195 249.44 -0.0300197C249.594 -0.0390854 249.749 -0.0121945 249.891 0.0485377C250.033 0.10927 250.16 0.202187 250.26 0.31998C250.457 0.569917 250.56 0.881621 250.55 1.19998C250.465 1.76364 250.321 2.31673 250.12 2.84998C249.813 3.85678 249.677 4.9082 249.72 5.95998C250.56 5.36998 251.08 4.95998 251.26 4.84998C251.5 4.66242 251.721 4.45138 251.92 4.21998C252.67 3.42998 253.13 2.96998 253.31 2.82998C253.533 2.68605 253.795 2.61606 254.06 2.62998C254.207 2.62581 254.353 2.65411 254.488 2.71288C254.623 2.77165 254.743 2.85944 254.84 2.96998C254.943 3.07576 255.023 3.20108 255.076 3.33851C255.129 3.47594 255.155 3.62267 255.15 3.76998C255.15 4.39998 254.69 4.76998 253.76 4.99998C252.428 5.25711 251.153 5.75527 250 6.46998L250.26 6.61998C251.382 7.20639 252.591 7.6114 253.84 7.81998C254.75 7.99998 255.2 8.43998 255.2 9.14998C255.213 9.31279 255.183 9.47614 255.113 9.6236C255.042 9.77105 254.935 9.89742 254.8 9.98998C254.57 10.1486 254.299 10.2387 254.02 10.25C253.59 10.25 253.02 9.81998 252.26 8.93998C251.64 8.15797 250.863 7.5142 249.98 7.04998L249.77 6.93998V7.15998C249.74 8.178 249.889 9.19335 250.21 10.16C250.409 10.6389 250.553 11.1387 250.64 11.65C250.645 11.9822 250.523 12.304 250.3 12.55C250.188 12.6779 250.05 12.7793 249.894 12.8467C249.738 12.9142 249.57 12.9461 249.4 12.94C249.247 12.9435 249.096 12.912 248.957 12.8479C248.818 12.7837 248.696 12.6887 248.6 12.57C248.397 12.3188 248.29 12.003 248.3 11.68C248.3 11.59 248.48 10.94 248.83 9.74998C249.136 8.91592 249.255 8.02509 249.18 7.13998V6.91998C248.256 7.44269 247.427 8.11903 246.73 8.91998C245.97 9.77998 245.35 10.21 244.88 10.21C244.728 10.2227 244.575 10.2005 244.433 10.1451C244.291 10.0896 244.163 10.0023 244.06 9.88998C243.891 9.69901 243.796 9.45462 243.79 9.19998C243.7 8.49998 244.22 7.99998 245.26 7.78998Z" fill="white"/>
</svg>
