<svg class="site-logo" viewBox="0 0 120 47" fill="none" xmlns="http://www.w3.org/2000/svg">
    <g clip-path="url(#clip0_789_2376)">
        <g class="upper">
            <path d="M87.169 1.95093V15.8685L74.9347 2.0256L74.8693 1.95093H70.3359V22.5955H74.7636V8.00273L87.6544 22.5955H91.6246V1.95093H87.169Z" fill="#FFFFFF"></path>
            <path d="M109.588 1.95093H103.421L92.1758 12.2748L103.421 22.5955H109.588L98.2183 12.2748L109.588 1.95093Z" fill="#FFFFFF"></path>
            <path d="M63.5426 1.95087V12.6108C63.5426 16.7864 61.5793 18.815 57.5375 18.815C53.4957 18.815 51.5044 16.7864 51.5044 12.6108V1.95087H46.9336V12.841C46.9336 19.2195 50.7981 22.8817 57.5375 22.8817C64.2769 22.8817 68.1476 19.2164 68.1476 12.8379V1.94775L63.5426 1.95087Z" fill="#FFFFFF"></path>
            <path d="M40.6543 14.5959C43.5511 13.6936 45.2064 11.4845 45.2064 8.52858C45.2064 4.4121 42.2505 1.95093 37.3032 1.95093H24.3906V22.5955H28.9614V15.0782H35.8346L40.592 22.5955H45.8815L40.6543 14.5959ZM28.9614 5.90249H37.0792C39.391 5.90249 40.6636 6.83593 40.6636 8.55657C40.6636 10.2772 39.3568 11.1858 37.0792 11.1858H28.9614V5.90249Z" fill="#FFFFFF"></path>
            <path d="M0 1.95093V5.9585H8.92369V22.5955H13.5224V5.9585H22.4461V1.95093H0Z" fill="#FFFFFF"></path>
        </g>
        <g class="lower">
            <path d="M87.2331 35.2994C88.375 34.8016 90.1952 33.585 90.1952 30.8998C90.1952 27.4523 87.706 25.4734 83.35 25.4734H70.4062V46.0091H83.9411C88.2256 46.0091 90.889 43.8124 90.889 40.2746C90.861 37.9473 89.4889 36.0804 87.2331 35.2994ZM73.3061 28.0777H83.1104C85.027 28.0777 87.3108 28.6066 87.3108 31.1238C87.3108 33.0716 85.8173 34.1451 83.1104 34.1451H73.3061V28.0777ZM73.3061 36.7898H83.8136C86.3307 36.7898 87.9581 38.0842 87.9581 40.088C87.9581 42.0918 86.3307 43.4172 83.8136 43.4172H73.3061V36.7898Z" fill="#FFFFFF"></path>
            <path d="M110.578 35.2994C111.719 34.8016 113.543 33.585 113.543 30.8998C113.543 27.4523 111.054 25.4734 106.682 25.4734H93.7383V46.0091H107.27C111.558 46.0091 114.218 43.8124 114.218 40.2746C114.218 37.9473 112.836 36.0804 110.578 35.2994ZM111.303 40.0817C111.303 42.1042 109.678 43.411 107.158 43.411H96.6506V36.7836H107.158C109.678 36.7774 111.303 38.0717 111.303 40.0817ZM96.6506 34.1513V28.0839H106.455C108.372 28.0839 110.655 28.6129 110.655 31.13C110.655 33.0778 109.165 34.1513 106.455 34.1513H96.6506Z" fill="#FFFFFF"></path>
            <path d="M120.004 25.4736H116.977V46.0093H120.004V25.4736Z" fill="#FFFFFF"></path>
        </g>
    </g>
    <defs>
        <clipPath id="clip0_789_2376">
            <rect width="120" height="46.0093" fill="white"></rect>
        </clipPath>
    </defs>
</svg>
