<svg width="1024" height="135" viewBox="0 0 1024 135" fill="none" xmlns="http://www.w3.org/2000/svg">
<path d="M322.79 40.4102C334.913 40.4102 342.57 47.886 342.57 58.9854C342.57 70.3271 334.69 77.803 322.224 77.803H309.515V94.2904H296.247V40.4102H322.79ZM321.261 66.6768C326.406 66.6768 329.545 63.7066 329.545 59.1201C329.545 54.776 326.406 51.7115 321.261 51.7115H309.515V66.6768H321.261Z" fill="white"/>
<path d="M384.152 94.2904L380.374 84.4842H357.691L353.912 94.2904H339.674L362.196 40.4102H375.788L398.309 94.2904H384.152ZM369.032 55.3687L362.196 73.0615H375.949L369.032 55.3687Z" fill="white"/>
<path d="M438.632 94.2904L422.421 75.796H418.555V94.2904H405.287V40.4102H432.523C444.188 40.4102 451.907 47.4819 451.907 58.0223C451.907 66.8654 446.438 73.2232 437.763 75.1494L454.634 94.2904H438.632ZM431.069 64.6967C435.783 64.6967 438.874 62.1239 438.874 58.1839C438.874 54.2439 435.817 51.7452 431.069 51.7452H418.521V64.6967H431.069Z" fill="white"/>
<path d="M495.159 94.2904L477.547 74.0246H476.079V94.2904H462.831V40.4102H476.099V61.8006H476.685L495.011 40.4102H510.932L488.033 67.4311L512.542 94.2904H495.159Z" fill="white"/>
<path d="M518.57 94.2904V40.4102H531.845V94.2904H518.57Z" fill="white"/>
<path d="M593.578 94.2904H582.64L555.377 63.087V94.2904H542.109V40.4102H553.127L580.391 72.5766V40.4102H593.578V94.2904Z" fill="white"/>
<path d="M659.615 62.528C659.826 64.1539 659.934 65.7915 659.938 67.4311C659.938 83.7568 648.28 95.5026 632.028 95.5026C615.777 95.5026 602.994 83.191 602.994 67.3502C602.994 51.5095 615.622 39.1978 631.793 39.1978C643.774 39.1978 654.308 44.8283 658.059 55.3619L645.263 59.0594C642.124 52.944 636.979 51.3411 631.752 51.3411C622.997 51.3411 616.309 58.258 616.309 67.3435C616.309 76.429 623.145 83.4267 632.149 83.4267C639.228 83.4267 644.374 79.7292 646.387 73.7754H629.9V62.528H659.615Z" fill="white"/>
<path d="M255.837 0V134.701H700.348V0H255.837ZM686.878 26.9401V121.23H269.307V13.4701H686.878V26.9401Z" fill="white"/>
<path d="M34.3419 94.2904H20.8314V77.5673L0 40.4102H14.4736L27.7483 64.0501L40.8547 40.4102H55.6717L34.3621 77.4056L34.3419 94.2904Z" fill="white"/>
<path d="M113.371 67.4311C113.371 83.1169 100.743 95.5026 84.6593 95.5026C68.5761 95.5026 55.9479 83.1169 55.9479 67.4311C55.9479 51.7452 68.5693 39.1978 84.6593 39.1978C100.749 39.1978 113.371 51.6644 113.371 67.4311ZM100.096 67.4311C100.096 58.1839 93.4216 51.3478 84.6593 51.3478C75.897 51.3478 69.2159 58.1839 69.2159 67.4311C69.2159 76.6782 75.8903 83.3527 84.6593 83.3527C93.4283 83.3527 100.096 76.5974 100.096 67.4311Z" fill="white"/>
<path d="M171.305 70.0039C171.305 85.4473 161.735 95.5027 147.416 95.5027C132.781 95.5027 122.968 85.4473 122.968 70.0039V40.4102H136.243V70.0039C136.243 78.2071 140.661 83.2719 147.416 83.2719C153.774 83.2719 158.037 78.2071 158.037 70.0039V40.4102H171.305V70.0039Z" fill="white"/>
<path d="M215.46 94.2904L199.215 75.796H195.356V94.2904H182.081V40.4102H209.345C221.01 40.4102 228.728 47.4819 228.728 58.0223C228.728 66.8654 223.259 73.2232 214.585 75.1494L231.463 94.2904H215.46ZM207.897 64.6967C212.611 64.6967 215.703 62.1239 215.703 58.1839C215.703 54.2439 212.645 51.7452 207.897 51.7452H195.356V64.6967H207.897Z" fill="white"/>
<path d="M771.396 54.8029L758.364 57.4565C757.401 52.3917 753.218 49.8998 748.935 49.8998C744.51 49.8998 741.695 52.3109 741.695 55.3686C741.695 57.5373 742.665 59.147 746.039 59.8676L757.219 62.3663C766.547 64.4542 772.036 69.5189 772.036 78.0455C772.036 89.5489 761.826 95.5026 749.81 95.5026C737.687 95.5026 727.693 89.7105 726.238 79.1702L739.917 76.5166C741.264 82.0663 745.143 84.4841 750.531 84.4841C755.515 84.4841 758.492 82.2279 758.492 78.9345C758.492 76.5166 757.367 74.9878 753.508 74.1863L742.247 71.7752C734.522 70.0038 727.767 65.983 727.767 56.1701C727.767 45.7174 736.455 39.1978 749.083 39.1978C760.856 39.1978 769.382 44.99 771.396 54.8029Z" fill="white"/>
<path d="M808.742 40.4102C820.865 40.4102 828.529 47.886 828.529 58.9854C828.529 70.3271 820.643 77.803 808.176 77.803H795.474V94.2904H782.199V40.4102H808.742ZM807.213 66.6768C812.358 66.6768 815.497 63.7066 815.497 59.1201C815.497 54.776 812.358 51.7115 807.213 51.7115H795.474V66.6768H807.213Z" fill="white"/>
<path d="M870.778 94.2904L867 84.4842H844.316L840.538 94.2904H826.3L848.822 40.4102H862.413L884.935 94.2904H870.778ZM855.658 55.3687L848.822 73.0615H862.575L855.658 55.3687Z" fill="white"/>
<path d="M943.759 74.0853C941.26 87.5957 930.403 95.4825 916.57 95.4825C900.567 95.4825 887.939 83.1775 887.939 67.33C887.939 51.4825 900.567 39.1776 916.57 39.1776C929.844 39.1776 941.105 47.0643 943.678 59.8474L930.646 62.9051C928.955 55.106 923.486 51.3276 916.57 51.3276C908.05 51.3276 901.214 58.1636 901.214 67.33C901.214 76.4964 908.05 83.4133 916.57 83.4133C923.406 83.4133 928.874 79.5541 930.713 71.5125L943.759 74.0853Z" fill="white"/>
<path d="M997.053 94.2904H955.074V40.4102H996.831V51.8597H968.362V61.9622H994.501V72.7383H968.362V82.8408H997.073L997.053 94.2904Z" fill="white"/>
<path d="M1010.53 80.8203H1024V94.2904H1010.53V80.8203Z" fill="white"/>
</svg>
